<svg width="24" height="25" viewBox="0 0 24 25" fill="none" xmlns="http://www.w3.org/2000/svg">
<path d="M7.68043 1.93994C4.24002 1.93994 1.44043 4.73953 1.44043 8.17994V16.8199C1.44043 20.2603 4.24002 23.0599 7.68043 23.0599H16.3204C19.7608 23.0599 22.5604 20.2603 22.5604 16.8199V8.17994C22.5604 4.73953 19.7608 1.93994 16.3204 1.93994H7.68043ZM7.68043 2.89994H16.3204C19.2419 2.89994 21.6004 5.25843 21.6004 8.17994V16.8199C21.6004 19.7415 19.2419 22.0999 16.3204 22.0999H7.68043C4.75892 22.0999 2.40043 19.7415 2.40043 16.8199V8.17994C2.40043 5.25843 4.75892 2.89994 7.68043 2.89994ZM17.7604 5.77994C17.5058 5.77994 17.2616 5.88108 17.0816 6.06112C16.9016 6.24115 16.8004 6.48533 16.8004 6.73994C16.8004 6.99455 16.9016 7.23873 17.0816 7.41876C17.2616 7.5988 17.5058 7.69994 17.7604 7.69994C18.015 7.69994 18.2592 7.5988 18.4393 7.41876C18.6193 7.23873 18.7204 6.99455 18.7204 6.73994C18.7204 6.48533 18.6193 6.24115 18.4393 6.06112C18.2592 5.88108 18.015 5.77994 17.7604 5.77994ZM12.0004 7.21994C9.09005 7.21994 6.72043 9.58956 6.72043 12.4999C6.72043 15.4103 9.09005 17.7799 12.0004 17.7799C14.9108 17.7799 17.2804 15.4103 17.2804 12.4999C17.2804 9.58956 14.9108 7.21994 12.0004 7.21994ZM12.0004 8.17994C14.392 8.17994 16.3204 10.1084 16.3204 12.4999C16.3204 14.8915 14.392 16.8199 12.0004 16.8199C9.60887 16.8199 7.68043 14.8915 7.68043 12.4999C7.68043 10.1084 9.60887 8.17994 12.0004 8.17994Z" fill="#EDEDED"/>
</svg>
