<svg width="24" height="25" viewBox="0 0 24 25" fill="none" xmlns="http://www.w3.org/2000/svg">
<path d="M21.3008 3.37348C21.067 3.38374 20.8394 3.4488 20.6342 3.53098C20.4311 3.61261 19.2617 4.11173 17.5348 4.85005C15.808 5.58836 13.5632 6.54981 11.338 7.50317C6.88753 9.4099 2.51421 11.286 2.51421 11.286L2.54609 11.2738C2.54609 11.2738 2.28214 11.362 2.01452 11.5485C1.88072 11.6417 1.73677 11.7621 1.6189 11.9375C1.50103 12.113 1.41486 12.3617 1.44734 12.6247C1.5614 13.5486 2.5189 13.8107 2.5189 13.8107L2.52265 13.8125L6.79577 15.275C6.90472 15.6385 8.09183 19.6006 8.35296 20.4397C8.49718 20.9036 8.63216 21.1712 8.77296 21.3538C8.84342 21.4451 8.91726 21.5158 8.9989 21.5675C9.03134 21.5881 9.06545 21.6035 9.09921 21.6172H9.10109C9.10523 21.6191 9.10914 21.6192 9.11327 21.621L9.10202 21.6182C9.10987 21.6213 9.11761 21.6267 9.12546 21.6294C9.1407 21.6348 9.15003 21.6346 9.16952 21.6388C9.65891 21.8097 10.0639 21.4925 10.0639 21.4925L10.0808 21.4794L12.7058 19.0447L16.9658 22.3663L17.0192 22.3907C17.7649 22.7217 18.4392 22.537 18.8126 22.2332C19.1861 21.9293 19.333 21.5375 19.333 21.5375L19.3489 21.4963L22.4792 5.18098C22.5593 4.81597 22.5707 4.50046 22.4951 4.21536C22.4196 3.93025 22.2361 3.68241 22.0058 3.54504C21.7755 3.40768 21.5346 3.36323 21.3008 3.37348ZM21.3261 4.34942C21.421 4.34502 21.4914 4.35588 21.5136 4.36911C21.5358 4.38234 21.5457 4.3806 21.567 4.46098C21.5883 4.54137 21.5999 4.71068 21.5417 4.97567L21.5398 4.9813L18.4273 21.2019C18.42 21.2182 18.3551 21.3683 18.207 21.4888C18.056 21.6117 17.8879 21.7077 17.442 21.5207L12.7836 17.8879L12.6523 17.7847L12.6495 17.7875L11.2564 16.7422L19.0855 7.5313C19.1456 7.4607 19.184 7.37419 19.1961 7.28223C19.2081 7.19026 19.1932 7.09678 19.1533 7.01309C19.1133 6.92939 19.05 6.85906 18.9709 6.8106C18.8918 6.76215 18.8004 6.73764 18.7076 6.74005C18.617 6.7424 18.529 6.77035 18.4536 6.82067L7.12484 14.3732L2.84515 12.9079C2.84515 12.9079 2.42018 12.6714 2.39984 12.5066C2.39871 12.4975 2.39369 12.5057 2.41577 12.4729C2.43786 12.44 2.49337 12.3845 2.56296 12.336C2.70215 12.239 2.86109 12.1804 2.86109 12.1804L2.87702 12.1747L2.89296 12.1682C2.89296 12.1682 7.26651 10.292 11.7167 8.38536C13.9418 7.43204 16.1862 6.4713 17.9126 5.73317C19.6386 4.99523 20.8858 4.46406 20.9914 4.42161C21.1116 4.37347 21.2311 4.35382 21.3261 4.34942ZM16.1342 9.52067L10.197 16.506L10.1942 16.5088C10.1849 16.52 10.1762 16.5315 10.168 16.5435C10.1585 16.5565 10.1498 16.5699 10.1417 16.5838C10.1084 16.6404 10.087 16.7033 10.0789 16.7685C10.0789 16.7697 10.0789 16.771 10.0789 16.7722L9.30546 20.2504C9.2926 20.2128 9.2836 20.199 9.26984 20.1547V20.1538C9.02418 19.3645 7.90417 15.6278 7.74921 15.111L16.1342 9.52067ZM10.8673 17.6507L11.9342 18.4513L10.3667 19.9044L10.8673 17.6507Z" fill="#EDEDED"/>
</svg>
