<svg width="24" height="25" viewBox="0 0 24 25" fill="none" xmlns="http://www.w3.org/2000/svg">
<g clip-path="url(#clip0_2431_28252)">
<path d="M16.425 3.125C13.5543 3.125 11.22 5.45937 11.22 8.33C11.22 8.5025 11.2631 8.67125 11.28 8.84C7.73059 8.50062 4.59184 6.79063 2.45996 4.175C2.36059 4.04937 2.20684 3.98187 2.04559 3.99313C1.88621 4.00437 1.74371 4.09625 1.66496 4.235C1.21684 5.00563 0.959962 5.8925 0.959962 6.845C0.959962 7.99813 1.37246 9.05375 2.00996 9.92C1.88621 9.86562 1.75121 9.83562 1.63496 9.77C1.48684 9.69125 1.30871 9.695 1.16434 9.78125C1.01996 9.8675 0.931837 10.0231 0.929962 10.19V10.25C0.929962 12.0181 1.84496 13.5537 3.19496 14.495C3.17996 14.4931 3.16496 14.4987 3.14996 14.495C2.98496 14.4669 2.81809 14.525 2.70746 14.6506C2.59684 14.7762 2.56121 14.9506 2.60996 15.11C3.14621 16.7769 4.51496 18.05 6.20996 18.515C4.85996 19.3175 3.29434 19.79 1.60496 19.79C1.23934 19.79 0.888712 19.7712 0.539962 19.73C0.314962 19.7 0.0993369 19.8312 0.0243371 20.045C-0.052538 20.2587 0.0318371 20.4969 0.224962 20.615C2.39059 22.0044 4.96121 22.82 7.72496 22.82C12.2043 22.82 15.7181 20.9487 18.075 18.275C20.4318 15.6012 21.66 12.1288 21.66 8.885C21.66 8.74812 21.6487 8.615 21.645 8.48C22.5243 7.80687 23.31 7.0175 23.925 6.095C24.0468 5.91687 24.0337 5.67875 23.8931 5.51375C23.7543 5.34875 23.52 5.29813 23.325 5.39C23.0775 5.50063 22.7887 5.51187 22.53 5.6C22.8712 5.14437 23.1637 4.65313 23.34 4.1C23.4 3.91063 23.3343 3.7025 23.1787 3.57875C23.0231 3.45687 22.8056 3.44187 22.635 3.545C21.8156 4.03063 20.9081 4.37187 19.95 4.58C19.02 3.71 17.7956 3.125 16.425 3.125ZM16.425 4.085C17.6493 4.085 18.7556 4.60813 19.53 5.435C19.6462 5.555 19.8168 5.60563 19.98 5.57C20.6062 5.44625 21.2006 5.26437 21.78 5.03C21.4462 5.48 21.0337 5.86437 20.55 6.155C20.3306 6.26187 20.2275 6.515 20.3081 6.74562C20.3868 6.97437 20.6268 7.1075 20.865 7.055C21.345 6.99687 21.7725 6.80187 22.23 6.68C21.8193 7.12437 21.3693 7.52563 20.88 7.88C20.7468 7.9775 20.6737 8.135 20.685 8.3C20.6925 8.495 20.7 8.68812 20.7 8.885C20.7 11.885 19.5487 15.1419 17.355 17.63C15.1612 20.1181 11.94 21.86 7.72496 21.86C5.81059 21.86 4.00309 21.4362 2.36996 20.69C4.39496 20.5344 6.26246 19.8181 7.76996 18.635C7.92746 18.5094 7.98934 18.2994 7.92559 18.1081C7.86184 17.9169 7.68559 17.7856 7.48496 17.78C5.90246 17.7519 4.57684 16.8312 3.86996 15.53C3.89621 15.53 3.91871 15.53 3.94496 15.53C4.41934 15.53 4.88809 15.47 5.32496 15.35C5.53496 15.2881 5.67934 15.0931 5.67184 14.8737C5.66434 14.6544 5.50871 14.4669 5.29496 14.42C3.58684 14.075 2.30621 12.6838 2.00996 10.955C2.49371 11.1219 2.98871 11.2531 3.52496 11.27C3.74434 11.2831 3.94309 11.1462 4.01059 10.9381C4.07809 10.73 3.99559 10.5013 3.80996 10.385C2.66996 9.62187 1.91996 8.3225 1.91996 6.845C1.91996 6.2975 2.06246 5.795 2.24996 5.315C4.64996 7.94937 8.00996 9.69875 11.805 9.89C11.955 9.8975 12.1012 9.83562 12.1987 9.72125C12.2962 9.605 12.3337 9.45125 12.3 9.305C12.2268 8.99375 12.18 8.66375 12.18 8.33C12.18 5.97875 14.0737 4.085 16.425 4.085Z" fill="#EDEDED"/>
</g>
<defs>
<clipPath id="clip0_2431_28252">
<rect width="24" height="24" fill="white" transform="translate(0 0.5)"/>
</clipPath>
</defs>
</svg>
